#!OML:ASF F:\twosubjects\two\Thursday\Session 1\Rory.ASF
:FULLY-SPECIFIED
:DEGREES
410
root 13.3455 17.7734 -13.3901 1.28393 -21.195 3.49186
lowerback -1.88609 -0.300355 -4.7005
upperback 0.792521 -0.249012 -1.86642
thorax 1.88555 -0.172365 0.707136
lowerneck -13.1224 -3.5535 -4.67108
upperneck 24.3946 -4.42814 1.70881
head 10.0731 -2.31868 0.826543
rclavicle 6.03808e-015 -1.51076e-014
rhumerus -36.6222 -15.4812 -78.1232
rradius 30.3035
rwrist 19.0492
rhand -22.3646 24.7131
rfingers 7.12502
rthumb 4.05671 -5.22804
lclavicle 6.03808e-015 -1.51076e-014
lhumerus -42.2835 23.6519 72.1254
lradius 25.3225
lwrist -27.0331
lhand -14.5629 30.0018
lfingers 7.12502
lthumb 11.5863 59.6615
rfemur -9.3517 6.58058 16.1149
rtibia 25.6408
rfoot -16.7368 -15.0658
rtoes -8.87489
lfemur -2.77132 -3.17933 -17.1397
ltibia 13.1809
lfoot -12.8681 11.3305
ltoes 16.0742
411
root 13.3821 17.7779 -13.3941 1.33104 -21.2781 3.65943
lowerback -1.85558 -0.713502 -5.09728
upperback 0.608288 -0.804197 -1.48629
thorax 1.71629 -0.449534 1.3009
lowerneck -12.6243 -3.28079 -5.87058
upperneck 23.9509 -3.86187 2.02163
head 9.8352 -2.13289 1.21752
rclavicle -6.44808e-014 9.54166e-015
rhumerus -36.4209 -13.9111 -78.157
rradius 30.0088
rwrist 19.2909
rhand -22.6357 24.5717
rfingers 7.12502
rthumb 3.79489 -5.37426
lclavicle -6.44808e-014 9.54166e-015
lhumerus -43.1508 24.857 71.942
lradius 25.6132
lwrist -26.9614
lhand -12.421 30.7019
lfingers 7.12502
lthumb 13.6513 60.2342
rfemur -9.51799 7.0324 15.8139
rtibia 25.6246
rfoot -16.7405 -15.3424
rtoes -8.39378
lfemur -2.96409 -3.16742 -17.4164
ltibia 13.2002
lfoot -13.1384 11.3176
ltoes 16.9871
412
root 13.4197 17.7796 -13.3947 1.39517 -21.4111 3.76987
lowerback -1.74987 0.571841 -4.72106
upperback 1.03802 0.926655 -2.66531
thorax 2.01988 0.41202 -0.0627911
lowerneck -13.9108 -4.48606 -3.20882
upperneck 23.756 -6.1107 1.99065
head 10.0108 -2.9174 0.452241
rclavicle -2.43014e-014 1.35174e-014
rhumerus -36.7076 -18.6267 -78.2383
rradius 30.1915
rwrist 19.7568
rhand -22.4562 24.4534
rfingers 7.12502
rthumb 3.96827 -5.48941
lclavicle -2.43014e-014 1.35174e-014
lhumerus -40.2224 21.3012 72.6103
lradius 24.9127
lwrist -27.371
lhand -12.4947 30.3811
lfingers 7.12502
lthumb 13.5802 59.9182
rfemur -9.66324 7.30459 15.5646
rtibia 25.5697
rfoot -16.6358 -15.5421
rtoes -8.9457
lfemur -3.18661 -3.17418 -17.6439
ltibia 13.3281
lfoot -13.2429 11.3222
ltoes 17.7114
413
root 13.4519 17.7877 -13.3945 1.58411 -21.5347 3.7456
lowerback -1.90375 -0.0832217 -5.08657
upperback 0.814243 0.0553313 -2.09329
thorax 1.90423 -0.0251501 0.699787
lowerneck -13.0127 -3.91578 -4.54581
upperneck 23.0601 -5.03698 2.13037
head 9.60546 -2.53525 0.883825
rclavicle -4.26642e-014 -3.57812e-015
rhumerus -36.3061 -16.0625 -78.5342
rradius 29.8279
rwrist 19.3793
rhand -22.5481 22.9977
rfingers 7.12502
rthumb 3.87953 -6.94677
lclavicle -4.26642e-014 -3.57812e-015
lhumerus -41.6201 23.6111 71.9766
lradius 24.9856
lwrist -27.5504
lhand -14.849 29.2966
lfingers 7.12502
lthumb 11.3104 58.9716
rfemur -9.88259 7.19644 15.4388
rtibia 25.4764
rfoot -16.5126 -15.4201
rtoes -9.63154
lfemur -3.53253 -2.60432 -17.6969
ltibia 13.5467
lfoot -12.9558 10.6855
ltoes 16.9034
414
root 13.4888 17.7907 -13.3979 1.64375 -21.503 3.72011
lowerback -1.75339 0.398947 -4.95088
upperback 1.11664 0.704142 -2.5272
thorax 2.1063 0.294422 0.199896
lowerneck -13.9373 -4.4051 -3.43792
upperneck 22.8928 -5.94426 2.15366
head 9.71676 -2.84448 0.575445
rclavicle -5.92875e-014 1.43125e-014
rhumerus -35.9517 -17.9977 -78.6949
rradius 29.5593
rwrist 19.4975
rhand -23.0718 21.3533
rfingers 7.12502
rthumb 3.37374 -8.59975
lclavicle -5.92875e-014 1.43125e-014
lhumerus -40.1682 21.7994 72.6179
lradius 24.7221
lwrist -27.573
lhand -13.8328 28.9463
lfingers 7.12502
lthumb 12.2904 58.5651
rfemur -9.93326 7.37394 15.3334
rtibia 25.3595
rfoot -16.4158 -15.6266
rtoes -9.87604
lfemur -3.81545 -2.20394 -17.7831
ltibia 13.82
lfoot -12.6312 10.1657
ltoes 15.2739
415
root 13.5324 17.7897 -13.4015 1.74484 -21.4889 3.56222
lowerback -1.69492 0.0233719 -4.87579
upperback 0.991632 0.186953 -2.1914
thorax 1.96369 0.040166 0.485635
lowerneck -13.6 -4.06931 -4.19333
upperneck 22.7727 -5.31987 2.23016
head 9.61701 -2.61637 0.814494
rclavicle -1.49089e-014 1.27222e-014
rhumerus -35.8914 -16.4244 -78.8001
rradius 29.4536
rwrist 19.4191
rhand -23.0324 22.7525
rfingers 7.12502
rthumb 3.41179 -7.19999
lclavicle -1.49089e-014 1.27222e-014
lhumerus -40.9956 22.6577 72.5001
lradius 25.0554
lwrist -27.6927
lhand -12.0445 29.1233
lfingers 7.12502
lthumb 14.0141 58.6309
rfemur -10.0327 7.5236 15.3464
rtibia 25.2647
rfoot -16.2143 -15.7987
rtoes -10.1634
lfemur -4.05996 -2.23079 -17.7648
ltibia 14.0143
lfoot -12.5401 10.5564
ltoes 14.1162
416
root 13.5693 17.7894 -13.4048 1.91739 -21.5717 3.48715
lowerback -1.7006 -0.312243 -5.03169
upperback 0.795564 -0.269523 -1.83892
thorax 1.78765 -0.184975 0.920305
lowerneck -13.2639 -3.76275 -5.00843
upperneck 22.6842 -4.73644 2.32911
head 9.52754 -2.40873 1.06402
rclavicle -1.49089e-015 -2.38542e-015
rhumerus -35.9259 -14.8725 -78.9078
rradius 29.3991
rwrist 19.2938
rhand -22.9903 23.3103
rfingers 7.12502
rthumb 3.4525 -6.64153
lclavicle -1.49089e-015 -2.38542e-015
lhumerus -41.7333 23.8518 72.2516
lradius 25.244
lwrist -27.292
lhand -12.0589 29.3589
lfingers 7.12502
lthumb 14.0002 58.8674
rfemur -10.2502 7.80487 15.2914
rtibia 25.2312
rfoot -16.1304 -16.0324
rtoes -10.2812
lfemur -4.33122 -2.12902 -17.7822
ltibia 14.1203
lfoot -12.5164 10.7916
ltoes 13.9618
417
root 13.6045 17.794 -13.4067 2.00556 -21.6469 3.56607
lowerback -1.58643 0.425894 -4.95195
upperback 1.04295 0.723823 -2.495
thorax 1.93507 0.308166 0.232789
lowerneck -14.2082 -4.46612 -3.42889
upperneck 22.6607 -6.04798 2.29686
head 9.69355 -2.87256 0.605862
rclavicle 4.18442e-014 -2.70347e-014
rhumerus -36.0002 -17.3921 -79.0853
rradius 29.5517
rwrist 19.431
rhand -23.2083 21.8872
rfingers 7.12502
rthumb 3.24191 -8.06788
lclavicle 4.18442e-014 -2.70347e-014
lhumerus -39.8931 21.8832 72.6657
lradius 24.9402
lwrist -27.2653
lhand -11.9142 29.7345
lfingers 7.12502
lthumb 14.1397 59.2333
rfemur -10.4088 7.83478 15.0737
rtibia 25.1917
rfoot -16.0921 -16.0462
rtoes -10.4699
lfemur -4.56605 -1.95572 -17.946
ltibia 14.1941
lfoot -12.7754 10.5296
ltoes 15.4207
418
root 13.6455 17.7984 -13.4037 2.0618 -21.6762 3.65597
lowerback -1.60807 0.281538 -5.11591
upperback 0.865738 0.526552 -2.37711
thorax 1.77016 0.212588 0.439077
lowerneck -13.3809 -4.36511 -3.81828
upperneck 22.2219 -5.86201 2.43612
head 9.39551 -2.81695 0.763364
rclavicle -3.62782e-015 2.38542e-015
rhumerus -36.3015 -16.5192 -79.1458
rradius 29.8131
rwrist 19.3655
rhand -22.912 22.5572
rfingers 7.12502
rthumb 3.52813 -7.39333
lclavicle -3.62782e-015 2.38542e-015
lhumerus -40.7189 22.7214 72.2072
lradius 25.3493
lwrist -28.3647
lhand -10.8772 30.0671
lfingers 7.12502
lthumb 15.1388 59.4934
rfemur -10.5316 7.59712 14.818
rtibia 25.1198
rfoot -15.8564 -15.9351
rtoes -11.5066
lfemur -4.78795 -1.89894 -18.168
ltibia 14.2922
lfoot -12.9584 10.2839
ltoes 16.7247
